<svg xmlns="http://www.w3.org/2000/svg" data-name="Layer 1" viewBox="0 0 32 40" x="0px" y="0px"><path d="M26.604,18.982c-.824-.745-2.104-.737-2.918,.021l-3.129,2.92h-6.306v1.078h6.731l3.439-3.21c.406-.379,1.047-.383,1.457-.011,.218,.197,.343,.467,.354,.76,.01,.292-.096,.57-.299,.782l-2.85,2.978c-.499,.522-1.139,.87-1.849,1.007l-6.226,1.203c-.216,.042-.438,.063-.658,.063H5.228v1.078H14.353c.289,0,.58-.028,.863-.083l6.226-1.203c.93-.18,1.768-.637,2.423-1.321l2.85-2.978c.405-.423,.617-.979,.597-1.565-.021-.586-.271-1.126-.706-1.521Z"/><path d="M13.344,16.424c.199-.194,.462-.294,.738-.281,.278,.013,.53,.138,.71,.35,.334,.396,.31,.971-.057,1.338l-3.535,3.535v2.481h1.078v-2.035l3.219-3.219c.766-.766,.817-1.967,.119-2.795-.37-.438-.91-.705-1.482-.731-.575-.023-1.135,.187-1.544,.587l-5.514,5.396h-1.849v1.078h2.288l5.828-5.704Z"/><path d="M21.04,4.33l-5.58,1.61v4.46c0,4.33,5.11,7.05,5.33,7.16l.25,.14,.25-.14c.21-.11,5.32-2.83,5.32-7.16V5.94l-5.57-1.61Zm-.69,8.25l-2.06-2.06,.76-.76,1.3,1.3,2.67-2.67,.76,.76-3.43,3.43Z"/><text x="0" y="47" fill="#000000" font-size="5px" font-weight="bold" font-family="'Helvetica Neue', Helvetica, Arial-Unicode, Arial, Sans-serif">Created by IGraphics</text><text x="0" y="52" fill="#000000" font-size="5px" font-weight="bold" font-family="'Helvetica Neue', Helvetica, Arial-Unicode, Arial, Sans-serif">from the Noun Project</text></svg>