<svg xmlns="http://www.w3.org/2000/svg" version="1.1" viewBox="-5.0 -10.0 110.0 135.0">
 <path d="m32.617 27.766h32.121c1.8008 0.007813 1.8203 2.7617 0 2.7695h-32.121c-1.8008-0.007812-1.8203-2.7617 0-2.7695zm0 15.07h16.062c1.8164-0.007813 1.8047-2.7617 0-2.7695h-16.062c-1.8164 0.007813-1.8086 2.7656 0 2.7695zm18.977 3.3828h-18.977c-1.8164 0.007812-1.8047 2.7617 0 2.7695h18.977c1.8164-0.007812 1.8047-2.7617 0-2.7695zm-18.977 6.1523c-1.8125 0.007812-1.8086 2.7617 0 2.7695h12.785c1.8125-0.007813 1.8086-2.7617 0-2.7695zm32.121-18.453h-32.121c-1.8203 0.007812-1.8008 2.7656 0 2.7695h32.121c1.8164-0.007812 1.8008-2.7656 0-2.7695zm-51.656 5.9297v-8.8945c0.003907-1.75 1.4336-3.1914 3.1914-3.1914h8.8945c0.87891 0 1.6797 0.35938 2.2539 0.9375 0.57812 0.57812 0.9375 1.375 0.9375 2.2539v8.8945c0 1.7578-1.4336 3.1914-3.1914 3.1914h-8.8945c-1.7578 0.003907-3.1914-1.4414-3.1914-3.1914zm2.7695 0c-0.003906 0.23438 0.19141 0.41797 0.42188 0.42188h8.8945c0.23047 0 0.42188-0.19141 0.42188-0.42188v-8.8945c0-0.23047-0.19141-0.42188-0.42188-0.42188h-8.8945c-0.11328 0-0.21875 0.046875-0.29688 0.125h-0.007812c-0.074219 0.074219-0.11719 0.17969-0.11719 0.29688zm1.5078-26.371h19.676c3.7031-0.11719 5.707 4.7969 3.0195 7.2891-0.78125 0.77734-1.8477 1.2617-3.0195 1.2617h-19.676c-5.6289-0.14844-5.6406-8.3984 0-8.5508zm0 5.7812h19.676c1.9648-0.007812 1.9727-3.0039 0-3.0117h-19.676c-1.9609 0.015625-1.9727 2.9922 0 3.0117zm55.48 56.516c-17.48-0.53906-17.477-25.914 0-26.453 17.48 0.53906 17.477 25.914 0 26.453zm7.3906-20.621c-10.07-9.4727-24.258 4.7227-14.785 14.785 10.07 9.4766 24.258-4.7227 14.785-14.785zm15.164 14.902c-0.69141 2.5469-4.4961 3.0195-6.0469 4.5703-1.0078 1.918-0.28125 5.6914-2.4648 7.1016-0.60937 0.5-1.3477 0.66406-2.1367 0.68359v15.703c0.03125 1.0625-1.2422 1.7578-2.1172 1.1758l-9.7852-5.6016-9.8281 5.625c-0.88672 0.53906-2.0977-0.17188-2.0703-1.2031v-9.3555h-49.113c-2.0391 0-3.8789-0.83594-5.2422-2.1797-1.3438-1.3438-2.1797-3.1992-2.1797-5.2422l-0.007812-73.414c-0.003906-4.082 3.3438-7.418 7.418-7.418h43.246c0.03125 0 0.058594 0.015625 0.089844 0.015625 0.13672 0.003906 0.26953 0.03125 0.39844 0.078125 0.015624 0.007812 0.03125 0.007812 0.046874 0.015625 0.16016 0.066406 0.3125 0.15234 0.44531 0.29688l17.77 17.77c0.13281 0.125 0.21875 0.26953 0.28516 0.42188 0.011719 0.023438 0.015626 0.046875 0.023438 0.070313 0.042969 0.125 0.070312 0.25 0.078125 0.37891 0.003906 0.039063 0.023437 0.070313 0.023437 0.10547v19.395c1.9609 0.79688 3.418 3.2461 5.0742 4.0898 2.1562 0.41016 5.5625-1.4336 7.5781 0.22656 2.1797 1.4141 1.4648 5.1797 2.4648 7.1016 0.35156 0.47656 1.2773 0.91016 2.2109 1.3438 4.1406 1.5938 5.0703 4.2852 2.7383 8.1055-0.49609 0.96094-1 1.9336-1 2.6289 0.24219 2.2852 3.0742 5.0117 2.1016 7.5117zm-38.938-56.438c0 1.2773 0.52344 2.4414 1.3672 3.2812 0.83594 0.85156 2.0039 1.3633 3.2812 1.3672h8.3906l-13.039-13.035zm4.4805 68.793c-0.78906-0.019531-1.5312-0.18359-2.1367-0.68359-2.1797-1.4102-1.4648-5.1797-2.4688-7.1016-0.35156-0.47656-1.2773-0.91016-2.2109-1.3398-4.1406-1.5938-5.0703-4.2891-2.7422-8.1094 1.2656-2.1094 1.2578-3.1406 0-5.2578-2.3164-3.8008-1.4258-6.5117 2.7383-8.1055 0.93359-0.43359 1.8594-0.86328 2.2109-1.3438 1.0078-1.918 0.28125-5.6914 2.4688-7.1016 2.0156-1.6562 5.418 0.17578 7.5781-0.22656 1.6602-0.83594 3.1172-3.293 5.0742-4.0898l0.003906-18.012h-10.348c-4.0703-0.003906-7.4219-3.3359-7.418-7.418v-10.352h-41.863c-1.2812 0-2.4414 0.52344-3.2812 1.3633v0.003907c-0.84375 0.84375-1.3672 2.0039-1.3672 3.2812v73.418c0.003907 2.5547 2.0898 4.6523 4.6484 4.6484h49.113zm21.035-0.29297c-0.96875-0.16406-1.9023-0.30859-2.6719-0.16406-2.0273 1.0234-3.7422 4.5117-6.4609 4.3633-2.7148 0.14453-4.4375-3.3359-6.4609-4.3633-0.76953-0.14844-1.7031-0.003906-2.6719 0.16406v13.609c2.7969-1.6016 5.6211-3.3047 8.4414-4.832 0.41406-0.23438 0.93359-0.25391 1.375 0l8.4453 4.8359zm8.5508-19.57c-0.1875-2.1016 2.3867-4.8359 2.25-6.6445-0.1875-0.56641-1.2891-1.0781-2.3789-1.582-1.2578-0.58594-2.5117-1.1641-3.2812-2.2188-0.78125-1.0664-0.95312-2.4453-1.1211-3.8242-0.30469-2.9883-0.58984-3.2031-3.5469-2.5977-2.9531 0.79687-5.2188 0.066406-7.1484-2.3086-2.1445-2.3555-2.7617-2.375-4.9141 0-1.9336 2.3828-4.2031 3.1016-7.1484 2.3086-2.9414-0.59375-3.2461-0.40625-3.5469 2.6016-0.17188 1.3789-0.34375 2.7578-1.1211 3.8242-0.77344 1.0508-2.0234 1.6328-3.2812 2.2188-1.0898 0.50391-2.1875 1.0156-2.375 1.582-0.19531 0.57422 0.375 1.6523 0.93359 2.7422 0.65234 1.2617 1.3164 2.5352 1.3164 3.8984 0.003906 1.3672-0.67188 2.6445-1.3164 3.9062-1.4688 2.6953-1.3906 3.0898 1.4414 4.3203 1.2578 0.58594 2.5117 1.1641 3.2812 2.2188 0.78125 1.0664 0.95312 2.4453 1.1211 3.8242 0.14453 1.1719 0.28906 2.3477 0.75 2.6836 1.6289 0.63672 4.9336-0.98047 6.8086-0.16406 2.0469 0.49219 3.7656 3.8594 5.5938 4.2109 0.70312 0 1.5859-0.92188 2.457-1.8242 1.9297-2.3828 4.2031-3.0977 7.1484-2.3086 1.168 0.21094 2.332 0.42188 2.7969 0.082032 1.0859-1.3555 0.52734-4.9844 1.8711-6.5078 1.0469-1.7383 4.7266-2.3203 5.6602-3.8008 0.13281-1.8086-2.4336-4.5391-2.25-6.6406zm-43.965-4.0234h-13.941c-1.8164 0.007812-1.8086 2.7617 0 2.7695h13.941c1.8164-0.007813 1.8086-2.7617 0-2.7695zm-32.09 8.918h31.129c1.8203-0.007812 1.8008-2.7617 0-2.7695h-31.129c-1.8203 0.007813-1.8008 2.7656 0 2.7695zm31.512 3.3828h-31.512c-1.8203 0.007812-1.8008 2.7617 0 2.7695h31.512c1.8203-0.007812 1.8008-2.7617 0-2.7695zm-32.898-12.523v-8.8945c0-1.7578 1.4336-3.1914 3.1914-3.1914h8.8945c0.875 0 1.6758 0.35938 2.2539 0.94141s0.9375 1.3789 0.9375 2.25v8.8945c0.003906 1.75-1.4453 3.1953-3.1914 3.1914h-8.8945c-1.7578 0-3.1914-1.4297-3.1914-3.1914zm2.7695 0c0 0.23047 0.19141 0.42188 0.42188 0.42188h8.8945c0.23828 0 0.41797-0.18359 0.42188-0.42188v-8.8945c0-0.23828-0.18359-0.41797-0.42188-0.42188h-8.8945c-0.11328 0-0.21875 0.046875-0.29688 0.125-0.078124 0.078125-0.125 0.18359-0.125 0.29688z"/>
<text x="0.0" y="117.5" font-size="5.0" font-weight="bold" font-family="Arbeit Regular, Helvetica, Arial-Unicode, Arial, Sans-serif" fill="#000000">Created by karyative</text><text x="0.0" y="122.5" font-size="5.0" font-weight="bold" font-family="Arbeit Regular, Helvetica, Arial-Unicode, Arial, Sans-serif" fill="#000000">from Noun Project</text></svg>