<svg xmlns="http://www.w3.org/2000/svg" xmlns:xlink="http://www.w3.org/1999/xlink" xml:space="preserve" version="1.1" style="shape-rendering:geometricPrecision;text-rendering:geometricPrecision;image-rendering:optimizeQuality;" viewBox="0 0 846.66 1058.325" x="0px" y="0px" fill-rule="evenodd" clip-rule="evenodd"><defs><style type="text/css">
   
    .fil0 {fill:black;fill-rule:nonzero}
   
  </style></defs><g><path class="fil0" d="M348.36 787.73c9.35,0 16.93,7.58 16.93,16.93 0,9.35 -7.58,16.93 -16.93,16.93l-238.75 0c-9.35,0 -16.93,-7.58 -16.93,-16.93l0 -325.01c0,-32.61 13.34,-62.26 34.8,-83.72 21.46,-21.46 51.11,-34.8 83.72,-34.8l223.42 0c29.2,0 56.09,10.75 76.83,28.49 16.83,14.39 29.64,33.46 36.36,55.17 6.51,-0.7 13.12,-1.06 19.81,-1.06 51.47,0 98.08,21.18 131.84,55.41 33.67,34.16 54.51,81.31 54.51,133.34 0,52 -20.82,99.09 -54.46,133.2 -33.71,34.19 -80.36,55.36 -131.89,55.47l-155.71 0.37c-9.31,0 -16.86,-7.55 -16.86,-16.86 0,-4.34 1.64,-8.29 4.33,-11.28l30.48 -33.88c-13.52,-15.03 -24.68,-32.35 -32.9,-51.3 -10.09,-23.27 -15.69,-48.91 -15.69,-75.72 0,-52.03 20.84,-99.18 54.51,-133.34 21.66,-21.96 48.61,-38.55 78.73,-47.62 -5.03,-14.15 -13.77,-26.63 -25.02,-36.24 -14.77,-12.63 -33.96,-20.29 -54.87,-20.29l-223.42 0c-23.26,0 -44.44,9.54 -59.78,24.88 -15.34,15.34 -24.88,36.52 -24.88,59.78l0 308.08 221.82 0zm234.06 -244.55l21.73 39.43 43.96 8.31c9.16,1.71 15.2,10.55 13.49,19.71 -0.62,3.33 -2.19,6.25 -4.37,8.54l-30.74 32.78 5.68 44.41c1.17,9.23 -5.38,17.68 -14.61,18.85 -3.28,0.42 -6.47,-0.14 -9.26,-1.45l-40.77 -19.15 -40.52 19.15c-8.43,3.98 -18.51,0.36 -22.49,-8.07 -1.41,-2.99 -1.87,-6.19 -1.49,-9.26l5.59 -44.78 -30.68 -32.56c-6.38,-6.79 -6.06,-17.49 0.73,-23.87 2.43,-2.28 5.35,-3.7 8.4,-4.28l44.26 -8.5 21.48 -39.21c4.45,-8.17 14.71,-11.19 22.88,-6.74 2.94,1.6 5.21,3.96 6.73,6.69zm-4.04 62.67l-10.73 -19.49 -10.08 18.4c-2.23,4.72 -6.6,8.34 -12.11,9.39l-21.83 4.18 14.32 15.21c3.81,3.57 5.93,8.84 5.25,14.41l-2.77 22.09 19.83 -9.37c4.4,-2.03 9.63,-2.21 14.35,0l20.21 9.49 -2.69 -21.03c-0.9,-5.07 0.53,-10.48 4.32,-14.52l15.2 -16.21 -21.35 -4.04c-4.88,-0.85 -9.35,-3.83 -11.92,-8.51zm97 -83.03c-27.55,-27.93 -65.66,-45.23 -107.76,-45.23 -42.1,0 -80.21,17.3 -107.76,45.23 -27.63,28.02 -44.73,66.8 -44.73,109.66 0,22.29 4.57,43.39 12.79,62.36 8.48,19.55 20.9,37.05 36.24,51.44 7.05,6.35 7.86,16.95 1.46,24.06l-15.66 17.37 117.66 -0.28c42.06,-0.08 80.2,-17.43 107.81,-45.43 27.6,-27.98 44.68,-66.69 44.68,-109.52 0,-42.86 -17.1,-81.64 -44.73,-109.66zm-352.47 -497.74c39.54,0 75.38,16.04 101.3,41.96 25.92,25.92 41.96,61.76 41.96,101.3 0,39.55 -16.04,75.38 -41.96,101.3 -25.92,25.92 -61.76,41.96 -101.3,41.96 -39.55,0 -75.38,-16.04 -101.3,-41.96 -25.92,-25.92 -41.96,-61.75 -41.96,-101.3 0,-39.54 16.04,-75.38 41.96,-101.3 25.92,-25.92 61.75,-41.96 101.3,-41.96zm77.36 65.9c-19.79,-19.79 -47.16,-32.04 -77.36,-32.04 -30.21,0 -57.57,12.25 -77.36,32.04 -19.79,19.79 -32.04,47.16 -32.04,77.36 0,30.21 12.25,57.57 32.04,77.36 19.79,19.79 47.15,32.04 77.36,32.04 30.2,0 57.57,-12.25 77.36,-32.04 19.79,-19.79 32.04,-47.15 32.04,-77.36 0,-30.2 -12.25,-57.57 -32.04,-77.36z"/></g><text x="0" y="861.66" fill="#000000" font-size="5px" font-weight="bold" font-family="'Helvetica Neue', Helvetica, Arial-Unicode, Arial, Sans-serif">Created by symbolic</text><text x="0" y="866.66" fill="#000000" font-size="5px" font-weight="bold" font-family="'Helvetica Neue', Helvetica, Arial-Unicode, Arial, Sans-serif">from the Noun Project</text></svg>