<svg xmlns="http://www.w3.org/2000/svg" xmlns:xlink="http://www.w3.org/1999/xlink" version="1.1" x="0px" y="0px" viewBox="0 0 512 640" style="enable-background:new 0 0 512 512;" xml:space="preserve"><g><g><g><path d="M383.503,328.429c3.435-4.556,5.188-10.102,4.982-15.912c-0.473-13.285-11.896-24.093-25.464-24.093h-91.266     c10.207-8.257,16.745-20.879,16.745-35c0-2.761-2.238-5-5-5h-75.3c-10.771,0-21.059,5.144-27.521,13.76l-12.359,16.48     c-4.584,6.111-11.881,9.76-19.521,9.76H58.5c-2.762,0-5,2.238-5,5v160c0,2.762,2.238,5,5,5h264.521     c13.568,0,24.991-10.808,25.464-24.093c0.206-5.809-1.546-11.354-4.979-15.907h19.515c13.568,0,24.991-10.808,25.464-24.093     c0.206-5.809-1.546-11.354-4.979-15.907c14.14-0.004,25.482-11.694,24.979-25.907     C408.017,339.389,396.858,328.68,383.503,328.429z M394.295,363.839c-2.853,2.957-6.688,4.585-10.795,4.585     c-8.876,0-97.023,0-110,0c-2.762,0-5,2.238-5,5c0,2.762,2.238,5,5,5h90c4.107,0,7.941,1.628,10.795,4.585     c2.852,2.955,4.342,6.85,4.195,10.967c-0.283,7.967-7.223,14.448-15.47,14.448H323.5h-70c-2.762,0-5,2.238-5,5     c0,2.762,2.238,5,5,5h70c4.107,0,7.941,1.628,10.795,4.585c2.852,2.955,4.342,6.85,4.195,10.967     c-0.283,7.967-7.223,14.448-15.47,14.448H63.5v-150h85.3c10.771,0,21.059-5.144,27.521-13.76l12.359-16.48     c4.584-6.111,11.881-9.76,19.521-9.76h69.943c-2.434,16.94-17.042,30-34.644,30c-2.762,0-5,2.238-5,5c0,2.762,2.238,5,5,5     h119.521c8.247,0,15.186,6.481,15.47,14.448c0.305,8.564-6.533,15.552-14.99,15.552h-90c-2.762,0-5,2.238-5,5     c0,2.762,2.238,5,5,5h90h19.521c8.247,0,15.186,6.481,15.47,14.448C398.637,356.99,397.147,360.884,394.295,363.839z"/><path d="M123.5,418.424h-40c-2.762,0-5,2.238-5,5c0,2.762,2.238,5,5,5h40c2.762,0,5-2.238,5-5     C128.5,420.663,126.262,418.424,123.5,418.424z"/><path d="M153.5,418.424h-10c-2.762,0-5,2.238-5,5c0,2.762,2.238,5,5,5h10c2.762,0,5-2.238,5-5     C158.5,420.663,156.262,418.424,153.5,418.424z"/><path d="M463.5,388.424c-13.785,0-25,11.215-25,25c0,13.785,11.215,25,25,25s25-11.215,25-25     C488.5,399.639,477.285,388.424,463.5,388.424z M463.5,428.424c-8.272,0-15-6.728-15-15c0-8.271,6.728-15,15-15s15,6.729,15,15     C478.5,421.696,471.772,428.424,463.5,428.424z"/><path d="M313.234,217.573l61.927,44.9c1.753,1.272,4.122,1.267,5.869,0l61.928-44.9c31.349-22.73,48.613-60.783,45.081-99.337     l-1.976-57.006c-0.094-2.692-2.303-4.827-4.997-4.827c-15.761,0-28.714-12.331-29.489-28.073     c-0.131-2.663-2.328-4.754-4.994-4.754l-136.977,0c-2.666,0-4.863,2.091-4.994,4.754c-0.775,15.742-13.729,28.073-29.489,28.073     c-2.694,0-4.903,2.134-4.997,4.827l-1.976,57.006C264.618,156.792,281.884,194.845,313.234,217.573z M278.121,119.015     c0.026-0.293-0.076,2.353,1.842-52.905c17.289-2.107,31.191-15.36,34.118-32.534l128.027,0     c2.927,17.174,16.829,30.427,34.118,32.534c1.929,55.563,1.815,52.617,1.842,52.905c3.265,35.104-12.438,69.767-40.979,90.462     l-58.993,42.771l-58.992-42.771C290.56,188.783,274.856,154.12,278.121,119.015z"/><path d="M360.477,182.303c0.938,0.938,2.209,1.464,3.535,1.464s2.598-0.527,3.535-1.464l71.494-71.494     c7.359-7.36,7.359-19.336-0.001-26.696c-7.377-7.377-19.318-7.378-26.696,0l-48.332,48.332l-11.885-11.884     c-3.566-3.566-8.307-5.529-13.349-5.529c-5.042,0-9.783,1.963-13.348,5.529c-3.566,3.565-5.53,8.306-5.53,13.348     c0,5.042,1.964,9.783,5.53,13.349L360.477,182.303z M332.502,127.631c1.676-1.676,3.905-2.6,6.276-2.6     c2.371,0,4.601,0.923,6.277,2.6l15.421,15.42c1.951,1.952,5.119,1.952,7.07,0l51.867-51.868c1.677-1.677,3.906-2.6,6.278-2.6     c2.371,0,4.601,0.923,6.276,2.6c3.462,3.461,3.462,9.094,0.001,12.555l-67.958,67.958l-31.511-31.51     c-1.677-1.677-2.601-3.906-2.601-6.277C329.9,131.538,330.824,129.309,332.502,127.631z"/><circle cx="31" cy="375.924" r="7.5"/><circle cx="446" cy="300.924" r="7.5"/><circle cx="96" cy="225.924" r="7.5"/><circle cx="196" cy="80.924" r="7.5"/><circle cx="246" cy="195.924" r="7.5"/><circle cx="156" cy="480.924" r="7.5"/><path d="M113.5,143.424c19.299,0,35-15.701,35-35s-15.701-35-35-35c-19.299,0-35,15.701-35,35S94.201,143.424,113.5,143.424z      M113.5,83.424c13.785,0,25,11.215,25,25s-11.215,25-25,25c-13.785,0-25-11.215-25-25S99.715,83.424,113.5,83.424z"/></g></g></g><text x="0" y="527" fill="#000000" font-size="5px" font-weight="bold" font-family="'Helvetica Neue', Helvetica, Arial-Unicode, Arial, Sans-serif">Created by Flatart</text><text x="0" y="532" fill="#000000" font-size="5px" font-weight="bold" font-family="'Helvetica Neue', Helvetica, Arial-Unicode, Arial, Sans-serif">from the Noun Project</text></svg>