<svg xmlns="http://www.w3.org/2000/svg" version="1.1" viewBox="-5.0 -10.0 110.0 135.0">
 <path d="m71.73 69.25-5.6328-17.344 19.23-13.977c0.95703-0.69531 1.3594-1.9297 0.99219-3.0586-0.36719-1.125-1.4141-1.8906-2.6016-1.8906h-23.773l-7.3477-22.613c-0.36719-1.125-1.418-1.8906-2.6016-1.8906s-2.2344 0.76172-2.6016 1.8906l-7.3477 22.613h-23.77c-1.1836 0-2.2344 0.76172-2.6016 1.8906-0.36719 1.125 0.035157 2.3594 0.99219 3.0586l19.23 13.977-5.6328 17.344c-10.637 1.6445-19.75 4.7969-19.75 10.355 0 9.4062 26.078 11.914 41.484 11.914 15.41 0 41.484-2.5078 41.484-11.914 0-5.5586-9.1172-8.7109-19.754-10.355zm-47.039-30.801h17.348c1.1836 0 2.2344-0.76172 2.6016-1.8906l5.3594-16.496 5.3594 16.5c0.36719 1.125 1.418 1.8906 2.6016 1.8906h17.348l-14.031 10.195c-0.95703 0.69531-1.3594 1.9297-0.99219 3.0547l5.3555 16.5-14.031-10.195c-0.95703-0.69531-2.2578-0.69531-3.2148 0l-14.039 10.199 5.3594-16.5c0.36719-1.125-0.035156-2.3594-0.99219-3.0547zm25.309 25.148 5.7852 4.2031c-2.0352-0.074219-3.9844-0.11328-5.7852-0.11328s-3.7539 0.035156-5.7891 0.11328zm0 22.453c-21.742 0-34.555-4.0586-35.969-6.4453 0.78516-1.3203 5.0625-3.1523 12.41-4.5273-0.10156 0.95703 0.30469 1.9141 1.1055 2.4961 0.95703 0.69531 2.2578 0.69531 3.2148 0l5.2266-3.7969c4.1406-0.38672 8.8203-0.61719 14.012-0.61719s9.8672 0.23438 14.008 0.61719l5.2227 3.7969c0.48047 0.34766 1.043 0.52344 1.6094 0.52344 0.5625 0 1.1289-0.17578 1.6055-0.52344 0.80078-0.58203 1.207-1.5391 1.1055-2.4961 7.3516 1.375 11.633 3.207 12.414 4.5273-1.4102 2.3867-14.223 6.4453-35.965 6.4453z"/>
<text x="0.0" y="117.5" font-size="5.0" font-weight="bold" font-family="Arbeit Regular, Helvetica, Arial-Unicode, Arial, Sans-serif" fill="#000000">Created by Mira iconic</text><text x="0.0" y="122.5" font-size="5.0" font-weight="bold" font-family="Arbeit Regular, Helvetica, Arial-Unicode, Arial, Sans-serif" fill="#000000">from Noun Project</text></svg>